[Header]
FileType HTR
DataType HTRS
FileVersion 1
NumSegments 22
NumFrames 4
DataFrameRate 24
EulerRotationOrder ZYX
CalibrationUnits mm
RotationUnits Degrees
GlobalAxisofGravity Y
BoneLengthAxis Y
ScaleFactor 1.0
[SegmentNames&Hierarchy]
reference	GLOBAL
Hips	reference
Spine	Hips
Spine1	Spine
Neck	Spine1
Head	Neck
LeftShoulder	Spine1
LeftArm	LeftShoulder
LeftForeArm	LeftArm
LeftHand	LeftForeArm
RightShoulder	Spine1
RightArm	RightShoulder
RightForeArm	RightArm
RightHand	RightForeArm
LeftUpLeg	Hips
LeftLeg	LeftUpLeg
LeftFoot	LeftLeg
LeftToeBase	LeftFoot
RightUpLeg	Hips
RightLeg	RightUpLeg
RightFoot	RightLeg
RightToeBase	RightFoot
[BasePosition]
reference	0	0	0	0	0	0	1
Hips	0	0	0	0	0	0	1
Spine	0	0	0	-0	-90	0	1
Spine1	0	0	0	0	0	0	1
Neck	0	0	0	82.64767223	-82.64767223	-90	1
Head	0	0	0	-0	-90	0	1
LeftShoulder	0	0	0	0	0	0	1
LeftArm	0	0	0	0	0	0	1
LeftForeArm	0	0	0	0	0	0	1
LeftHand	0	0	0	0	0	0	1
RightShoulder	0	0	0	0	-0	180	1
RightArm	0	0	0	0	-0	180	1
RightForeArm	0	0	0	0	-0	180	1
RightHand	0	0	0	0	-0	180	1
LeftUpLeg	0	0	0	-0	90	0	1
LeftLeg	0	0	0	-0	90	0	1
LeftFoot	0	0	0	-23.42853957	23.42853957	-90	1
LeftToeBase	0	0	0	0	-0	-90	1
RightUpLeg	0	0	0	-0	90	0	1
RightLeg	0	0	0	-0	90	0	1
RightFoot	0	0	0	-23.42853957	23.42853957	-90	1
RightToeBase	0	0	0	0	-0	-90	1
[reference]
1	0	0	0	0	-0	0	1.0
2	0	0	0	0	-0	0	1.0
3	0	0	0	0	-0	0	1.0
4	0	0	0	0	-0	0	1.0
[Hips]
1	5.19536972	-0.1693199873	8.00755024	0.7296958566	2.053989649	-130.3704987	1.0
2	5.19536972	-0.1693199873	8.00755024	0.5457336307	2.077854872	-130.3817749	1.0
3	5.19536972	-0.1693199873	8.00755024	0.3089435101	2.325829506	-130.5696716	1.0
4	5.19536972	-0.1693199873	8.00755024	-0.1738461852	2.788883209	-131.2665863	1.0
[Spine]
1	0	0	0.7457100153	63.37135696	86.35734558	69.14046478	1.0
2	0	0	0.7457100153	61.97326279	86.91507721	67.72357178	1.0
3	0	0	0.7457100153	57.56015015	87.62058258	63.28936768	1.0
4	0	0	0.7457100153	25.54474258	88.2691803	31.46334839	1.0
[Spine1]
1	0	0	2.140589952	9.596347809	-0.8765697479	1.039169908	1.0
2	0	0	2.140589952	9.952360153	-1.017451048	0.843421936	1.0
3	0	0	2.140589952	10.33635807	-1.426758289	0.5624418259	1.0
4	0	0	2.140589952	11.31636429	-1.454626203	0.1317246705	1.0
[Neck]
1	0	0	2.32246995	77.96793365	80.49864197	95.18914032	1.0
2	0	0	2.32246995	76.62825012	80.27107239	94.10947418	1.0
3	0	0	2.32246995	75.73669434	79.85112762	93.58988953	1.0
4	0	0	2.32246995	73.54181671	79.07601929	92.2954483	1.0
[Head]
1	0	-0.1818799973	1.409579992	-58.11393738	93.05060577	-52.47101593	1.0
2	0	-0.1818799973	1.409579992	-57.99908066	93.38294983	-52.06467056	1.0
3	0	-0.1818799973	1.409579992	-62.55535126	93.72815704	-56.20409393	1.0
4	0	-0.1818799973	1.409579992	-64.67743683	94.62044525	-58.07025146	1.0
[LeftShoulder]
1	0.3668199778	0.02662999928	1.946700096	-13.02331638	1.54309094	-13.96386433	1.0
2	0.3668199778	0.02662999928	1.946700096	-13.89976215	1.623706222	-14.30405045	1.0
3	0.3668199778	0.02662999928	1.946700096	-14.19320488	2.420395851	-14.25358295	1.0
4	0.3668199778	0.02662999928	1.946700096	-16.17187309	2.698965311	-14.77042389	1.0
[LeftArm]
1	1.140689969	0	0	70.07631683	64.04908752	39.95954514	1.0
2	1.140689969	0	0	71.40614319	65.04338074	41.07453537	1.0
3	1.140689969	0	0	72.38383484	67.24456024	39.6531601	1.0
4	1.140689969	0	0	78.02337646	70.0030899	41.31246567	1.0
[LeftForeArm]
1	2.749800205	0	0	-10.40073776	4.116591454	-13.26193047	1.0
2	2.749800205	0	0	-11.1942625	3.369579792	-13.45085526	1.0
3	2.749800205	0	0	-14.00218391	1.700622201	-13.91648388	1.0
4	2.749800205	0	0	-17.32509232	-0.2593421042	-14.20146275	1.0
[LeftHand]
1	2.295179844	0	0	-9.850566864	-3.137037516	-2.607103348	1.0
2	2.295179844	0	0	-10.7374897	-5.10054493	-1.393402815	1.0
3	2.295179844	0	0	-13.76011658	-8.14434433	-0.4370580912	1.0
4	2.295179844	0	0	-17.0205574	-8.192814827	-4.723509789	1.0
[RightShoulder]
1	-0.3601199985	0.02662999928	1.946700096	-6.976563931	5.385443211	-175.3867798	1.0
2	-0.3601199985	0.02662999928	1.946700096	-6.997829437	5.369954586	-175.4527283	1.0
3	-0.3601199985	0.02662999928	1.946700096	-7.157972336	5.449104309	-175.6972351	1.0
4	-0.3601199985	0.02662999928	1.946700096	-7.046448708	5.318985939	-175.9290161	1.0
[RightArm]
1	-1.140689969	0	0	16.15497017	-77.70664978	-131.5930023	1.0
2	-1.140689969	0	0	16.18782997	-78.67201996	-132.8096161	1.0
3	-1.140689969	0	0	18.56678009	-80.43167877	-137.1633606	1.0
4	-1.140689969	0	0	29.4476223	-81.8194809	-152.9365234	1.0
[RightForeArm]
1	-2.749800205	0	0	5.417825222	2.911671877	-156.5671082	1.0
2	-2.749800205	0	0	5.107850075	2.472576141	-159.5512848	1.0
3	-2.749800205	0	0	2.9313941	1.9850564	-163.76297	1.0
4	-2.749800205	0	0	2.067437649	0.384121716	-168.6767426	1.0
[RightHand]
1	-2.295179844	0	0	6.093608856	12.36877537	-168.2319641	1.0
2	-2.295179844	0	0	5.825199127	11.76455879	-168.7097168	1.0
3	-2.295179844	0	0	3.543886662	10.3950634	-170.2815247	1.0
4	-2.295179844	0	0	2.500587225	7.33790493	-172.5723724	1.0
[LeftUpLeg]
1	0.9094099998	0	0	0.4545593262	-94.26808929	-28.01345825	1.0
2	0.9094099998	0	0	-4.603849888	-94.73773193	-23.55608368	1.0
3	0.9094099998	0	0	-6.076346397	-95.85744476	-22.43347549	1.0
4	0.9094099998	0	0	2.92078948	-97.91915894	-28.46035004	1.0
[LeftLeg]
1	0	0	-4.498080254	78.81552887	-67.29216766	-26.95318031	1.0
2	0	0	-4.498080254	78.3409729	-65.08351135	-19.85348511	1.0
3	0	0	-4.498080254	80.82400513	-55.81497192	-12.41093826	1.0
4	0	0	-4.498080254	81.28007507	-50.5374527	-2.714780569	1.0
[LeftFoot]
1	0	0	-3.729400158	-57.21379089	4.415121078	116.7764359	1.0
2	0	0	-3.729400158	-55.46849823	5.578417778	119.2169418	1.0
3	0	0	-3.729400158	-52.59526825	9.731948853	126.8496857	1.0
4	0	0	-3.729400158	-47.37760925	10.22799492	130.0194244	1.0
[LeftToeBase]
1	0	-1.364109993	-0.5911099911	9.999999975e-007	9.999999975e-007	1.745329176e-014	1.0
2	0	-1.364109993	-0.5911099911	9.999999975e-007	9.999999975e-007	1.745329176e-014	1.0
3	0	-1.364109993	-0.5911099911	9.999999975e-007	9.999999975e-007	1.745329176e-014	1.0
4	0	-1.364109993	-0.5911099911	9.999999975e-007	9.999999975e-007	1.745329176e-014	1.0
[RightUpLeg]
1	-0.9094099998	0	0	-25.99014282	-99.60681152	23.38713074	1.0
2	-0.9094099998	0	0	-27.3502636	-100.2193756	22.8256321	1.0
3	-0.9094099998	0	0	-28.8431282	-101.2958374	21.0607605	1.0
4	-0.9094099998	0	0	-26.29222298	-102.1428146	14.17196941	1.0
[RightLeg]
1	0	0	-4.498080254	12.80441189	-87.54650879	9.286874771	1.0
2	0	0	-4.498080254	23.69639206	-86.20484161	1.565153122	1.0
3	0	0	-4.498080254	-9.065223694	-83.62926483	39.89203644	1.0
4	0	0	-4.498080254	-0.7660861015	-83.39025879	37.80574036	1.0
[RightFoot]
1	0	0	-3.729400158	-58.047966	-22.18660545	84.38085175	1.0
2	0	0	-3.729400158	-59.47417831	-23.01730728	86.34407043	1.0
3	0	0	-3.729400158	-58.46161652	-24.78102875	83.4651947	1.0
4	0	0	-3.729400158	-59.1966629	-25.55776215	84.06785583	1.0
[RightToeBase]
1	0	-1.364109993	-0.5911099911	-9.999999975e-007	0	1.999999995e-006	1.0
2	0	-1.364109993	-0.5911099911	-9.999999975e-007	0	1.999999995e-006	1.0
3	0	-1.364109993	-0.5911099911	-9.999999975e-007	0	1.999999995e-006	1.0
4	0	-1.364109993	-0.5911099911	-9.999999975e-007	0	1.999999995e-006	1.0
[EndOfFile]
